<mxfile host="app.diagrams.net" agent="Mozilla/5.0 (Windows NT 10.0; Win64; x64) AppleWebKit/537.36 (KHTML, like Gecko) Chrome/128.0.0.0 Safari/537.36 OPR/114.0.0.0 (Edition std-1)" version="25.0.3">
  <diagram name="Página-1" id="eCuymNUMkhjMGa9AzXhw">
    <mxGraphModel dx="1666" dy="1612" grid="1" gridSize="10" guides="1" tooltips="1" connect="1" arrows="1" fold="1" page="1" pageScale="1" pageWidth="827" pageHeight="1169" math="0" shadow="0">
      <root>
        <mxCell id="0" />
        <mxCell id="1" parent="0" />
        <mxCell id="vFYeN3aaEDehaIR5FKd8-4" value="" style="edgeStyle=orthogonalEdgeStyle;rounded=0;orthogonalLoop=1;jettySize=auto;html=1;exitX=0.75;exitY=0.1;exitDx=0;exitDy=0;exitPerimeter=0;entryX=0;entryY=0.5;entryDx=0;entryDy=0;" parent="1" source="vFYeN3aaEDehaIR5FKd8-1" target="vFYeN3aaEDehaIR5FKd8-3" edge="1">
          <mxGeometry relative="1" as="geometry">
            <mxPoint x="-896.52" y="45" as="sourcePoint" />
            <mxPoint x="-591.52" y="-5" as="targetPoint" />
          </mxGeometry>
        </mxCell>
        <mxCell id="vFYeN3aaEDehaIR5FKd8-1" value="Cliente" style="shape=umlActor;verticalLabelPosition=bottom;verticalAlign=top;html=1;" parent="1" vertex="1">
          <mxGeometry x="-727" y="55" width="30" height="60" as="geometry" />
        </mxCell>
        <mxCell id="_MPpryopirrbxjsBCLa4-15" style="edgeStyle=orthogonalEdgeStyle;rounded=0;orthogonalLoop=1;jettySize=auto;html=1;" parent="1" source="vFYeN3aaEDehaIR5FKd8-2" target="7_m44Se5JZIXTpLDiQHv-5" edge="1">
          <mxGeometry relative="1" as="geometry" />
        </mxCell>
        <mxCell id="vFYeN3aaEDehaIR5FKd8-2" value="Barbeiro" style="shape=umlActor;verticalLabelPosition=bottom;verticalAlign=top;html=1;" parent="1" vertex="1">
          <mxGeometry x="305" y="780" width="30" height="60" as="geometry" />
        </mxCell>
        <mxCell id="vFYeN3aaEDehaIR5FKd8-3" value="&lt;div style=&quot;text-align: justify;&quot;&gt;&lt;br&gt;&lt;/div&gt;&lt;div style=&quot;text-align: justify;&quot;&gt;cadastra-se&lt;/div&gt;" style="ellipse;whiteSpace=wrap;html=1;verticalAlign=top;" parent="1" vertex="1">
          <mxGeometry x="-582" y="10" width="100" height="50" as="geometry" />
        </mxCell>
        <mxCell id="vFYeN3aaEDehaIR5FKd8-5" value="&lt;div style=&quot;text-align: justify;&quot;&gt;finaliza&lt;/div&gt;&lt;div style=&quot;text-align: justify;&quot;&gt;&lt;span style=&quot;background-color: initial;&quot;&gt;agendamento&lt;/span&gt;&lt;br&gt;&lt;/div&gt;" style="ellipse;whiteSpace=wrap;html=1;verticalAlign=top;" parent="1" vertex="1">
          <mxGeometry x="-627" y="605" width="110" height="50" as="geometry" />
        </mxCell>
        <mxCell id="vFYeN3aaEDehaIR5FKd8-8" value="&lt;div style=&quot;text-align: justify;&quot;&gt;&lt;span style=&quot;background-color: initial;&quot;&gt;&lt;br&gt;&lt;/span&gt;&lt;/div&gt;&lt;div style=&quot;text-align: justify;&quot;&gt;&lt;span style=&quot;background-color: initial;&quot;&gt;Escolhe serviço&lt;/span&gt;&lt;br&gt;&lt;/div&gt;" style="ellipse;whiteSpace=wrap;html=1;verticalAlign=top;" parent="1" vertex="1">
          <mxGeometry x="-582" y="395" width="100" height="50" as="geometry" />
        </mxCell>
        <mxCell id="_MPpryopirrbxjsBCLa4-27" style="edgeStyle=orthogonalEdgeStyle;rounded=0;orthogonalLoop=1;jettySize=auto;html=1;entryX=1;entryY=1;entryDx=0;entryDy=0;" parent="1" source="vFYeN3aaEDehaIR5FKd8-9" target="vFYeN3aaEDehaIR5FKd8-13" edge="1">
          <mxGeometry relative="1" as="geometry" />
        </mxCell>
        <mxCell id="_MPpryopirrbxjsBCLa4-29" style="edgeStyle=orthogonalEdgeStyle;rounded=0;orthogonalLoop=1;jettySize=auto;html=1;entryX=0.5;entryY=1;entryDx=0;entryDy=0;" parent="1" source="vFYeN3aaEDehaIR5FKd8-9" target="vFYeN3aaEDehaIR5FKd8-20" edge="1">
          <mxGeometry relative="1" as="geometry" />
        </mxCell>
        <mxCell id="_MPpryopirrbxjsBCLa4-30" style="edgeStyle=orthogonalEdgeStyle;rounded=0;orthogonalLoop=1;jettySize=auto;html=1;entryX=0;entryY=1;entryDx=0;entryDy=0;exitX=1;exitY=0.3333333333333333;exitDx=0;exitDy=0;exitPerimeter=0;" parent="1" source="vFYeN3aaEDehaIR5FKd8-9" target="vFYeN3aaEDehaIR5FKd8-28" edge="1">
          <mxGeometry relative="1" as="geometry">
            <mxPoint x="420" y="50.000588235294146" as="sourcePoint" />
            <mxPoint x="533.1511619773387" y="-62.88218309974215" as="targetPoint" />
            <Array as="points">
              <mxPoint x="542" y="62" />
            </Array>
          </mxGeometry>
        </mxCell>
        <mxCell id="_MPpryopirrbxjsBCLa4-31" style="edgeStyle=orthogonalEdgeStyle;rounded=0;orthogonalLoop=1;jettySize=auto;html=1;entryX=0;entryY=0.5;entryDx=0;entryDy=0;" parent="1" source="vFYeN3aaEDehaIR5FKd8-9" target="vFYeN3aaEDehaIR5FKd8-29" edge="1">
          <mxGeometry relative="1" as="geometry" />
        </mxCell>
        <mxCell id="_MPpryopirrbxjsBCLa4-32" style="edgeStyle=orthogonalEdgeStyle;rounded=0;orthogonalLoop=1;jettySize=auto;html=1;entryX=0;entryY=0.5;entryDx=0;entryDy=0;" parent="1" source="vFYeN3aaEDehaIR5FKd8-9" target="vFYeN3aaEDehaIR5FKd8-31" edge="1">
          <mxGeometry relative="1" as="geometry" />
        </mxCell>
        <mxCell id="_MPpryopirrbxjsBCLa4-33" style="edgeStyle=orthogonalEdgeStyle;rounded=0;orthogonalLoop=1;jettySize=auto;html=1;entryX=0;entryY=0.5;entryDx=0;entryDy=0;" parent="1" source="vFYeN3aaEDehaIR5FKd8-9" target="7_m44Se5JZIXTpLDiQHv-4" edge="1">
          <mxGeometry relative="1" as="geometry" />
        </mxCell>
        <mxCell id="_MPpryopirrbxjsBCLa4-34" style="edgeStyle=orthogonalEdgeStyle;rounded=0;orthogonalLoop=1;jettySize=auto;html=1;" parent="1" source="vFYeN3aaEDehaIR5FKd8-9" target="vFYeN3aaEDehaIR5FKd8-26" edge="1">
          <mxGeometry relative="1" as="geometry" />
        </mxCell>
        <mxCell id="_MPpryopirrbxjsBCLa4-35" style="edgeStyle=orthogonalEdgeStyle;rounded=0;orthogonalLoop=1;jettySize=auto;html=1;entryX=1;entryY=0.5;entryDx=0;entryDy=0;" parent="1" source="vFYeN3aaEDehaIR5FKd8-9" target="vFYeN3aaEDehaIR5FKd8-11" edge="1">
          <mxGeometry relative="1" as="geometry" />
        </mxCell>
        <mxCell id="_MPpryopirrbxjsBCLa4-36" style="edgeStyle=orthogonalEdgeStyle;rounded=0;orthogonalLoop=1;jettySize=auto;html=1;entryX=1;entryY=0.5;entryDx=0;entryDy=0;" parent="1" source="vFYeN3aaEDehaIR5FKd8-9" target="7_m44Se5JZIXTpLDiQHv-1" edge="1">
          <mxGeometry relative="1" as="geometry" />
        </mxCell>
        <mxCell id="_MPpryopirrbxjsBCLa4-37" style="edgeStyle=orthogonalEdgeStyle;rounded=0;orthogonalLoop=1;jettySize=auto;html=1;entryX=1;entryY=0.5;entryDx=0;entryDy=0;" parent="1" source="vFYeN3aaEDehaIR5FKd8-9" target="vFYeN3aaEDehaIR5FKd8-25" edge="1">
          <mxGeometry relative="1" as="geometry" />
        </mxCell>
        <mxCell id="vFYeN3aaEDehaIR5FKd8-9" value="Sistema" style="shape=umlActor;verticalLabelPosition=bottom;verticalAlign=top;html=1;" parent="1" vertex="1">
          <mxGeometry x="399" y="42.5" width="30" height="60" as="geometry" />
        </mxCell>
        <mxCell id="vFYeN3aaEDehaIR5FKd8-11" value="&lt;div style=&quot;text-align: justify;&quot;&gt;armazena dados&amp;nbsp;&lt;/div&gt;" style="ellipse;whiteSpace=wrap;html=1;verticalAlign=top;" parent="1" vertex="1">
          <mxGeometry x="180" y="205" width="115" height="40" as="geometry" />
        </mxCell>
        <mxCell id="vFYeN3aaEDehaIR5FKd8-13" value="&lt;div style=&quot;text-align: justify;&quot;&gt;&amp;nbsp;mostra os horarios de&amp;nbsp; &amp;nbsp; &amp;nbsp;cada barbeiro&lt;/div&gt;" style="ellipse;whiteSpace=wrap;html=1;verticalAlign=top;" parent="1" vertex="1">
          <mxGeometry x="70" width="150" height="50" as="geometry" />
        </mxCell>
        <mxCell id="_MPpryopirrbxjsBCLa4-22" style="edgeStyle=orthogonalEdgeStyle;rounded=0;orthogonalLoop=1;jettySize=auto;html=1;entryX=1;entryY=0.5;entryDx=0;entryDy=0;" parent="1" source="vFYeN3aaEDehaIR5FKd8-14" target="7_m44Se5JZIXTpLDiQHv-2" edge="1">
          <mxGeometry relative="1" as="geometry" />
        </mxCell>
        <mxCell id="_MPpryopirrbxjsBCLa4-23" style="edgeStyle=orthogonalEdgeStyle;rounded=0;orthogonalLoop=1;jettySize=auto;html=1;entryX=1;entryY=1;entryDx=0;entryDy=0;" parent="1" source="vFYeN3aaEDehaIR5FKd8-14" target="vFYeN3aaEDehaIR5FKd8-16" edge="1">
          <mxGeometry relative="1" as="geometry" />
        </mxCell>
        <mxCell id="vFYeN3aaEDehaIR5FKd8-14" value="Administrador" style="shape=umlActor;verticalLabelPosition=bottom;verticalAlign=top;html=1;" parent="1" vertex="1">
          <mxGeometry x="705" y="500" width="30" height="60" as="geometry" />
        </mxCell>
        <mxCell id="vFYeN3aaEDehaIR5FKd8-15" value="&lt;div style=&quot;text-align: justify;&quot;&gt;cadastra funcionários&lt;/div&gt;" style="ellipse;whiteSpace=wrap;html=1;verticalAlign=top;" parent="1" vertex="1">
          <mxGeometry x="622.5" y="410" width="130" height="40" as="geometry" />
        </mxCell>
        <mxCell id="vFYeN3aaEDehaIR5FKd8-16" value="&lt;div style=&quot;text-align: justify;&quot;&gt;cadastra serviços&lt;/div&gt;" style="ellipse;whiteSpace=wrap;html=1;verticalAlign=top;" parent="1" vertex="1">
          <mxGeometry x="440" y="450" width="130" height="30" as="geometry" />
        </mxCell>
        <mxCell id="vFYeN3aaEDehaIR5FKd8-17" value="&lt;div style=&quot;text-align: justify;&quot;&gt;edita agendamento&lt;/div&gt;" style="ellipse;whiteSpace=wrap;html=1;verticalAlign=top;" parent="1" vertex="1">
          <mxGeometry x="-780" y="212.5" width="120" height="25" as="geometry" />
        </mxCell>
        <mxCell id="vFYeN3aaEDehaIR5FKd8-18" value="&lt;div style=&quot;text-align: justify;&quot;&gt;&amp;nbsp;registra edição de&amp;nbsp; &amp;nbsp; agendamento&lt;/div&gt;" style="ellipse;whiteSpace=wrap;html=1;verticalAlign=top;" parent="1" vertex="1">
          <mxGeometry x="200" y="-70" width="140" height="50" as="geometry" />
        </mxCell>
        <mxCell id="vFYeN3aaEDehaIR5FKd8-19" value="&lt;div style=&quot;text-align: justify;&quot;&gt;Efetua login&lt;/div&gt;" style="ellipse;whiteSpace=wrap;html=1;verticalAlign=top;" parent="1" vertex="1">
          <mxGeometry x="-582" y="105" width="100" height="50" as="geometry" />
        </mxCell>
        <mxCell id="vFYeN3aaEDehaIR5FKd8-20" value="&lt;div style=&quot;text-align: justify;&quot;&gt;mostra os agendamentos&lt;/div&gt;&lt;div style=&quot;text-align: justify;&quot;&gt;&amp;nbsp; &amp;nbsp; &amp;nbsp; dos clientes&lt;/div&gt;" style="ellipse;whiteSpace=wrap;html=1;verticalAlign=top;" parent="1" vertex="1">
          <mxGeometry x="350" y="-80" width="140" height="50" as="geometry" />
        </mxCell>
        <mxCell id="vFYeN3aaEDehaIR5FKd8-21" value="&lt;div style=&quot;text-align: justify;&quot;&gt;inicia&lt;/div&gt;&lt;div style=&quot;text-align: justify;&quot;&gt;novo&lt;/div&gt;&lt;div style=&quot;text-align: justify;&quot;&gt;agendamento&lt;/div&gt;" style="ellipse;whiteSpace=wrap;html=1;verticalAlign=top;" parent="1" vertex="1">
          <mxGeometry x="-531" y="305" width="110" height="60" as="geometry" />
        </mxCell>
        <mxCell id="vFYeN3aaEDehaIR5FKd8-22" value="&lt;div style=&quot;text-align: justify;&quot;&gt;cancela agendamento&lt;/div&gt;" style="ellipse;whiteSpace=wrap;html=1;verticalAlign=top;" parent="1" vertex="1">
          <mxGeometry x="-327" y="200" width="130" height="45" as="geometry" />
        </mxCell>
        <mxCell id="vFYeN3aaEDehaIR5FKd8-23" value="&lt;div style=&quot;text-align: justify;&quot;&gt;ve se os agendamentos feitos&lt;/div&gt;" style="ellipse;whiteSpace=wrap;html=1;verticalAlign=top;" parent="1" vertex="1">
          <mxGeometry x="-591" y="205" width="170" height="40" as="geometry" />
        </mxCell>
        <mxCell id="vFYeN3aaEDehaIR5FKd8-24" value="&lt;div style=&quot;text-align: justify;&quot;&gt;&lt;span style=&quot;background-color: initial;&quot;&gt;&lt;br&gt;&lt;/span&gt;&lt;/div&gt;&lt;div style=&quot;text-align: justify;&quot;&gt;&lt;span style=&quot;background-color: initial;&quot;&gt;Escolhe horário juntamente com o&lt;/span&gt;&lt;/div&gt;&lt;div style=&quot;text-align: justify;&quot;&gt;&lt;span style=&quot;background-color: initial;&quot;&gt;&amp;nbsp;funcionário&lt;/span&gt;&lt;br&gt;&lt;/div&gt;" style="ellipse;whiteSpace=wrap;html=1;verticalAlign=top;" parent="1" vertex="1">
          <mxGeometry x="-667" y="490" width="230" height="60" as="geometry" />
        </mxCell>
        <mxCell id="vFYeN3aaEDehaIR5FKd8-25" value="&lt;div style=&quot;text-align: justify;&quot;&gt;&amp;nbsp;registra agendamento&lt;/div&gt;" style="ellipse;whiteSpace=wrap;html=1;verticalAlign=top;" parent="1" vertex="1">
          <mxGeometry x="60" y="70" width="140" height="50" as="geometry" />
        </mxCell>
        <mxCell id="vFYeN3aaEDehaIR5FKd8-26" value="&lt;div style=&quot;text-align: justify;&quot;&gt;gera os pontos&amp;nbsp;&lt;/div&gt;&lt;div style=&quot;text-align: justify;&quot;&gt;&lt;br&gt;&lt;/div&gt;" style="ellipse;whiteSpace=wrap;html=1;verticalAlign=top;" parent="1" vertex="1">
          <mxGeometry x="295" y="245" width="140" height="35" as="geometry" />
        </mxCell>
        <mxCell id="vFYeN3aaEDehaIR5FKd8-28" value="&lt;div style=&quot;text-align: justify;&quot;&gt;salva os pontos do cliente&lt;/div&gt;" style="ellipse;whiteSpace=wrap;html=1;verticalAlign=top;" parent="1" vertex="1">
          <mxGeometry x="520" y="-70" width="160" height="35" as="geometry" />
        </mxCell>
        <mxCell id="vFYeN3aaEDehaIR5FKd8-29" value="&lt;div style=&quot;text-align: justify;&quot;&gt;Debita os pontos do cliente&lt;/div&gt;" style="ellipse;whiteSpace=wrap;html=1;verticalAlign=top;" parent="1" vertex="1">
          <mxGeometry x="605" y="7.5" width="160" height="35" as="geometry" />
        </mxCell>
        <mxCell id="vFYeN3aaEDehaIR5FKd8-30" value="&lt;div style=&quot;text-align: justify;&quot;&gt;paga com pontos&lt;/div&gt;" style="ellipse;whiteSpace=wrap;html=1;verticalAlign=top;" parent="1" vertex="1">
          <mxGeometry x="-307" y="505" width="110" height="30" as="geometry" />
        </mxCell>
        <mxCell id="vFYeN3aaEDehaIR5FKd8-31" value="&lt;div style=&quot;text-align: justify;&quot;&gt;conta os serviços feitos por cada barbeiro&lt;/div&gt;" style="ellipse;whiteSpace=wrap;html=1;verticalAlign=top;" parent="1" vertex="1">
          <mxGeometry x="550" y="75" width="230" height="30" as="geometry" />
        </mxCell>
        <mxCell id="7_m44Se5JZIXTpLDiQHv-1" value="&lt;div style=&quot;text-align: justify;&quot;&gt;&amp;nbsp;registra cancelamento de&amp;nbsp; &amp;nbsp; agendamento&lt;/div&gt;" style="ellipse;whiteSpace=wrap;html=1;verticalAlign=top;" parent="1" vertex="1">
          <mxGeometry x="21.25" y="150" width="247.5" height="40" as="geometry" />
        </mxCell>
        <mxCell id="7_m44Se5JZIXTpLDiQHv-2" value="&lt;div style=&quot;text-align: justify;&quot;&gt;edita dados de clientes&lt;/div&gt;" style="ellipse;whiteSpace=wrap;html=1;verticalAlign=top;" parent="1" vertex="1">
          <mxGeometry x="460" y="555" width="130" height="30" as="geometry" />
        </mxCell>
        <mxCell id="7_m44Se5JZIXTpLDiQHv-3" value="&lt;div style=&quot;text-align: justify;&quot;&gt;edita dados de funcionários&lt;/div&gt;" style="ellipse;whiteSpace=wrap;html=1;verticalAlign=top;" parent="1" vertex="1">
          <mxGeometry x="605" y="665" width="200" height="30" as="geometry" />
        </mxCell>
        <mxCell id="7_m44Se5JZIXTpLDiQHv-4" value="&lt;div style=&quot;text-align: justify;&quot;&gt;&amp;nbsp;mostra os registros dos agendamentos&lt;/div&gt;" style="ellipse;whiteSpace=wrap;html=1;verticalAlign=top;" parent="1" vertex="1">
          <mxGeometry x="540" y="195" width="150" height="50" as="geometry" />
        </mxCell>
        <mxCell id="7_m44Se5JZIXTpLDiQHv-5" value="&lt;div style=&quot;text-align: justify;&quot;&gt;confirma comparecimento de cliente&lt;/div&gt;" style="ellipse;whiteSpace=wrap;html=1;verticalAlign=top;" parent="1" vertex="1">
          <mxGeometry x="450" y="870" width="172.5" height="50" as="geometry" />
        </mxCell>
        <mxCell id="7_m44Se5JZIXTpLDiQHv-6" value="&lt;div style=&quot;text-align: justify;&quot;&gt;confirma serviço conluído&lt;/div&gt;" style="ellipse;whiteSpace=wrap;html=1;verticalAlign=top;" parent="1" vertex="1">
          <mxGeometry x="260" y="930" width="150" height="50" as="geometry" />
        </mxCell>
        <mxCell id="7_m44Se5JZIXTpLDiQHv-7" value="&lt;div style=&quot;text-align: justify;&quot;&gt;Visualizar agendamentos&lt;/div&gt;&lt;div style=&quot;text-align: justify;&quot;&gt;dos clientes&lt;/div&gt;" style="ellipse;whiteSpace=wrap;html=1;verticalAlign=top;" parent="1" vertex="1">
          <mxGeometry x="100" y="800" width="150" height="50" as="geometry" />
        </mxCell>
        <mxCell id="7_m44Se5JZIXTpLDiQHv-8" value="&lt;div style=&quot;text-align: justify;&quot;&gt;Visualizar serviços feitos&lt;/div&gt;" style="ellipse;whiteSpace=wrap;html=1;verticalAlign=top;" parent="1" vertex="1">
          <mxGeometry x="80" y="900" width="150" height="40" as="geometry" />
        </mxCell>
        <mxCell id="_MPpryopirrbxjsBCLa4-1" value="&amp;lt;&amp;lt;include&amp;gt;&amp;gt;" style="html=1;verticalAlign=bottom;labelBackgroundColor=none;endArrow=open;endFill=0;dashed=1;rounded=0;exitX=0.5;exitY=1;exitDx=0;exitDy=0;entryX=0.5;entryY=0;entryDx=0;entryDy=0;" parent="1" source="vFYeN3aaEDehaIR5FKd8-3" target="vFYeN3aaEDehaIR5FKd8-19" edge="1">
          <mxGeometry width="160" relative="1" as="geometry">
            <mxPoint x="-487" y="85" as="sourcePoint" />
            <mxPoint x="-327" y="85" as="targetPoint" />
          </mxGeometry>
        </mxCell>
        <mxCell id="_MPpryopirrbxjsBCLa4-3" value="&amp;lt;&amp;lt;include&amp;gt;&amp;gt;" style="html=1;verticalAlign=bottom;labelBackgroundColor=none;endArrow=open;endFill=0;dashed=1;rounded=0;exitX=0.5;exitY=1;exitDx=0;exitDy=0;entryX=0.5;entryY=0;entryDx=0;entryDy=0;" parent="1" source="vFYeN3aaEDehaIR5FKd8-19" target="vFYeN3aaEDehaIR5FKd8-23" edge="1">
          <mxGeometry width="160" relative="1" as="geometry">
            <mxPoint x="-587" y="205" as="sourcePoint" />
            <mxPoint x="-427" y="205" as="targetPoint" />
          </mxGeometry>
        </mxCell>
        <mxCell id="_MPpryopirrbxjsBCLa4-4" value="&amp;lt;&amp;lt;extend&amp;gt;&amp;gt;" style="html=1;verticalAlign=bottom;labelBackgroundColor=none;endArrow=open;endFill=0;dashed=1;rounded=0;exitX=0.059;exitY=0.416;exitDx=0;exitDy=0;exitPerimeter=0;entryX=1;entryY=0.5;entryDx=0;entryDy=0;" parent="1" source="vFYeN3aaEDehaIR5FKd8-23" target="vFYeN3aaEDehaIR5FKd8-17" edge="1">
          <mxGeometry width="160" relative="1" as="geometry">
            <mxPoint x="-727" y="175" as="sourcePoint" />
            <mxPoint x="-587" y="175" as="targetPoint" />
          </mxGeometry>
        </mxCell>
        <mxCell id="_MPpryopirrbxjsBCLa4-5" value="&amp;lt;&amp;lt;extend&amp;gt;&amp;gt;" style="html=1;verticalAlign=bottom;labelBackgroundColor=none;endArrow=open;endFill=0;dashed=1;rounded=0;exitX=1;exitY=0.5;exitDx=0;exitDy=0;entryX=0;entryY=0.5;entryDx=0;entryDy=0;" parent="1" source="vFYeN3aaEDehaIR5FKd8-23" target="vFYeN3aaEDehaIR5FKd8-22" edge="1">
          <mxGeometry width="160" relative="1" as="geometry">
            <mxPoint x="-482" y="175" as="sourcePoint" />
            <mxPoint x="-322" y="175" as="targetPoint" />
          </mxGeometry>
        </mxCell>
        <mxCell id="_MPpryopirrbxjsBCLa4-7" value="&amp;lt;&amp;lt;include&amp;gt;&amp;gt;" style="html=1;verticalAlign=bottom;labelBackgroundColor=none;endArrow=open;endFill=0;dashed=1;rounded=0;exitX=0.557;exitY=1.063;exitDx=0;exitDy=0;exitPerimeter=0;entryX=0.5;entryY=0;entryDx=0;entryDy=0;" parent="1" source="vFYeN3aaEDehaIR5FKd8-23" target="vFYeN3aaEDehaIR5FKd8-21" edge="1">
          <mxGeometry width="160" relative="1" as="geometry">
            <mxPoint x="-636" y="285" as="sourcePoint" />
            <mxPoint x="-476" y="285" as="targetPoint" />
          </mxGeometry>
        </mxCell>
        <mxCell id="_MPpryopirrbxjsBCLa4-8" value="&amp;lt;&amp;lt;include&amp;gt;&amp;gt;" style="html=1;verticalAlign=bottom;labelBackgroundColor=none;endArrow=open;endFill=0;dashed=1;rounded=0;exitX=0.5;exitY=1;exitDx=0;exitDy=0;entryX=0.55;entryY=0.3;entryDx=0;entryDy=0;entryPerimeter=0;" parent="1" source="vFYeN3aaEDehaIR5FKd8-21" target="vFYeN3aaEDehaIR5FKd8-8" edge="1">
          <mxGeometry width="160" relative="1" as="geometry">
            <mxPoint x="-547" y="385" as="sourcePoint" />
            <mxPoint x="-387" y="385" as="targetPoint" />
          </mxGeometry>
        </mxCell>
        <mxCell id="_MPpryopirrbxjsBCLa4-10" value="&amp;lt;&amp;lt;include&amp;gt;&amp;gt;" style="html=1;verticalAlign=bottom;labelBackgroundColor=none;endArrow=open;endFill=0;dashed=1;rounded=0;exitX=0.339;exitY=1.004;exitDx=0;exitDy=0;exitPerimeter=0;entryX=0.5;entryY=0;entryDx=0;entryDy=0;" parent="1" source="vFYeN3aaEDehaIR5FKd8-8" target="vFYeN3aaEDehaIR5FKd8-24" edge="1">
          <mxGeometry width="160" relative="1" as="geometry">
            <mxPoint x="-567" y="485" as="sourcePoint" />
            <mxPoint x="-407" y="485" as="targetPoint" />
          </mxGeometry>
        </mxCell>
        <mxCell id="_MPpryopirrbxjsBCLa4-11" value="&amp;lt;&amp;lt;include&amp;gt;&amp;gt;" style="html=1;verticalAlign=bottom;labelBackgroundColor=none;endArrow=open;endFill=0;dashed=1;rounded=0;exitX=0.451;exitY=0.978;exitDx=0;exitDy=0;exitPerimeter=0;entryX=0.386;entryY=0.027;entryDx=0;entryDy=0;entryPerimeter=0;" parent="1" source="vFYeN3aaEDehaIR5FKd8-24" target="vFYeN3aaEDehaIR5FKd8-5" edge="1">
          <mxGeometry width="160" relative="1" as="geometry">
            <mxPoint x="-537" y="585" as="sourcePoint" />
            <mxPoint x="-377" y="585" as="targetPoint" />
          </mxGeometry>
        </mxCell>
        <mxCell id="_MPpryopirrbxjsBCLa4-12" value="&amp;lt;&amp;lt;extend&amp;gt;&amp;gt;" style="html=1;verticalAlign=bottom;labelBackgroundColor=none;endArrow=open;endFill=0;dashed=1;rounded=0;exitX=1;exitY=0.5;exitDx=0;exitDy=0;entryX=0;entryY=1;entryDx=0;entryDy=0;" parent="1" source="vFYeN3aaEDehaIR5FKd8-24" target="vFYeN3aaEDehaIR5FKd8-30" edge="1">
          <mxGeometry width="160" relative="1" as="geometry">
            <mxPoint x="-427" y="569.41" as="sourcePoint" />
            <mxPoint x="-267" y="569.41" as="targetPoint" />
          </mxGeometry>
        </mxCell>
        <mxCell id="_MPpryopirrbxjsBCLa4-14" value="" style="endArrow=classic;html=1;rounded=0;exitX=0.756;exitY=0.93;exitDx=0;exitDy=0;exitPerimeter=0;entryX=0.5;entryY=0;entryDx=0;entryDy=0;" parent="1" source="vFYeN3aaEDehaIR5FKd8-2" target="7_m44Se5JZIXTpLDiQHv-6" edge="1">
          <mxGeometry width="50" height="50" relative="1" as="geometry">
            <mxPoint x="280" y="950" as="sourcePoint" />
            <mxPoint x="330" y="900" as="targetPoint" />
          </mxGeometry>
        </mxCell>
        <mxCell id="_MPpryopirrbxjsBCLa4-17" value="" style="endArrow=classic;html=1;rounded=0;exitX=0;exitY=0.3333333333333333;exitDx=0;exitDy=0;exitPerimeter=0;entryX=0.999;entryY=0.671;entryDx=0;entryDy=0;entryPerimeter=0;" parent="1" source="vFYeN3aaEDehaIR5FKd8-2" target="7_m44Se5JZIXTpLDiQHv-7" edge="1">
          <mxGeometry width="50" height="50" relative="1" as="geometry">
            <mxPoint x="280" y="756" as="sourcePoint" />
            <mxPoint x="287" y="850" as="targetPoint" />
          </mxGeometry>
        </mxCell>
        <mxCell id="_MPpryopirrbxjsBCLa4-18" value="" style="endArrow=classic;html=1;rounded=0;exitX=0;exitY=1;exitDx=0;exitDy=0;exitPerimeter=0;entryX=1;entryY=0.5;entryDx=0;entryDy=0;" parent="1" source="vFYeN3aaEDehaIR5FKd8-2" target="7_m44Se5JZIXTpLDiQHv-8" edge="1">
          <mxGeometry width="50" height="50" relative="1" as="geometry">
            <mxPoint x="250" y="850" as="sourcePoint" />
            <mxPoint x="257" y="944" as="targetPoint" />
          </mxGeometry>
        </mxCell>
        <mxCell id="_MPpryopirrbxjsBCLa4-24" style="edgeStyle=orthogonalEdgeStyle;rounded=0;orthogonalLoop=1;jettySize=auto;html=1;entryX=0.706;entryY=0.978;entryDx=0;entryDy=0;entryPerimeter=0;" parent="1" source="vFYeN3aaEDehaIR5FKd8-14" target="vFYeN3aaEDehaIR5FKd8-15" edge="1">
          <mxGeometry relative="1" as="geometry" />
        </mxCell>
        <mxCell id="_MPpryopirrbxjsBCLa4-25" style="edgeStyle=orthogonalEdgeStyle;rounded=0;orthogonalLoop=1;jettySize=auto;html=1;entryX=0.597;entryY=0.137;entryDx=0;entryDy=0;entryPerimeter=0;" parent="1" source="vFYeN3aaEDehaIR5FKd8-14" target="7_m44Se5JZIXTpLDiQHv-3" edge="1">
          <mxGeometry relative="1" as="geometry" />
        </mxCell>
        <mxCell id="_MPpryopirrbxjsBCLa4-28" style="edgeStyle=orthogonalEdgeStyle;rounded=0;orthogonalLoop=1;jettySize=auto;html=1;entryX=0.774;entryY=1.012;entryDx=0;entryDy=0;entryPerimeter=0;" parent="1" source="vFYeN3aaEDehaIR5FKd8-9" target="vFYeN3aaEDehaIR5FKd8-18" edge="1">
          <mxGeometry relative="1" as="geometry" />
        </mxCell>
      </root>
    </mxGraphModel>
  </diagram>
</mxfile>
